name Walk10.mot
datacolumns 19
datarows 25
range 2.19000000 2.31000000
endheader

                time	   L_ground_force_vx	   L_ground_force_vy	   L_ground_force_vz	   L_ground_force_px	   L_ground_force_py	   L_ground_force_pz	   R_ground_force_vx	   R_ground_force_vy	   R_ground_force_vz	   R_ground_force_px	   R_ground_force_py	   R_ground_force_pz	   L_ground_torque_x	   L_ground_torque_y	   L_ground_torque_z	   R_ground_torque_x	   R_ground_torque_y	   R_ground_torque_z	
          2.19000000	          7.48526464	         31.23552295	         -0.04253184	          0.00368413	          0.00000000	          0.00256468	         -0.00000000	          0.00000000	          0.00000000	          0.00000000	          0.00000000	          0.00000000	          0.00000000	         -0.04509451	          0.00000000	          0.00000000	         -0.00000000	          0.00000000	
          2.19500000	          9.07001748	         49.48372525	         -0.21364484	         -0.08976839	          0.00000000	         -0.01463392	         -0.00000000	          0.00000000	          0.00000000	          0.00000000	          0.00000000	          0.00000000	          0.00000000	         -0.06349811	          0.00000000	          0.00000000	         -0.00000000	          0.00000000	
          2.20000000	          9.92933502	         70.43122701	         -0.56181971	         -0.17710176	          0.00000000	         -0.03059183	         -0.00000000	          0.00000000	          0.00000000	          0.00000000	          0.00000000	          0.00000000	          0.00000000	         -0.07622095	          0.00000000	          0.00000000	         -0.00000000	          0.00000000	
          2.20500000	          9.66888014	         93.35305856	         -1.11807476	         -0.25359442	          0.00000000	         -0.04444596	         -0.00000000	          0.00000000	          0.00000000	          0.00000000	          0.00000000	          0.00000000	          0.00000000	         -0.08027708	          0.00000000	          0.00000000	         -0.00000000	          0.00000000	
          2.21000000	          7.94630613	        117.38087034	         -1.87970039	         -0.31690823	          0.00000000	         -0.05578659	         -0.00000000	          0.00000000	          0.00000000	          0.00000000	          0.00000000	          0.00000000	          0.00000000	         -0.07293925	          0.00000000	          0.00000000	         -0.00000000	          0.00000000	
          2.21500000	          4.60211259	        141.89596125	         -2.78985709	         -0.36659775	          0.00000000	         -0.06457162	         -0.00000000	          0.00000000	          0.00000000	          0.00000000	          0.00000000	          0.00000000	          0.00000000	         -0.05191118	          0.00000000	          0.00000000	         -0.00000000	          0.00000000	
          2.22000000	         -0.27090376	        166.66518779	         -3.74693545	         -0.40346835	          0.00000000	         -0.07100002	         -0.00000000	          0.00000000	          0.00000000	          0.00000000	          0.00000000	          0.00000000	          0.00000000	         -0.01589750	          0.00000000	          0.00000000	         -0.00000000	          0.00000000	
          2.22500000	         -6.35636226	        191.64461633	         -4.63473217	         -0.42906907	          0.00000000	         -0.07540838	         -0.00000000	          0.00000000	          0.00000000	          0.00000000	          0.00000000	          0.00000000	          0.00000000	          0.03472877	          0.00000000	          0.00000000	          0.00000000	          0.00000000	
          2.23000000	        -13.17017297	        216.78248946	         -5.34635156	         -0.44530280	          0.00000000	         -0.07818878	         -0.00000000	          0.00000000	          0.00000000	          0.00000000	          0.00000000	          0.00000000	          0.00000000	          0.09757134	          0.00000000	          0.00000000	          0.00000000	          0.00000000	
          2.23500000	        -20.11746598	        241.96426021	         -5.79751973	         -0.45414323	          0.00000000	         -0.07973123	         -0.00000000	          0.00000000	          0.00000000	         -0.00000000	          0.00000000	         -0.00000000	          0.00000000	          0.16767897	          0.00000000	          0.00000000	          0.00000000	          0.00000000	
          2.24000000	        -26.58025254	        267.04259242	         -5.92766390	         -0.45744430	          0.00000000	         -0.08038866	         -0.00000000	         -0.00000000	         -0.00000000	         -0.00000000	          0.00000000	         -0.00000000	          0.00000000	          0.23733918	          0.00000000	          0.00000000	          0.00000000	          0.00000000	
          2.24500000	        -32.05483663	        291.85385789	         -5.68446197	         -0.45683199	          0.00000000	         -0.08046379	         -0.00000000	         -0.00000000	         -0.00000000	         -0.00000000	          0.00000000	         -0.00000000	          0.00000000	          0.29699391	          0.00000000	          0.00000000	          0.00000000	          0.00000000	
          2.25000000	        -36.30244660	        316.19990956	         -4.99918026	         -0.45364524	          0.00000000	         -0.08020277	         -0.00000000	         -0.00000001	         -0.00000000	         -0.00000000	          0.00000000	         -0.00000000	          0.00000000	          0.33713192	          0.00000000	          0.00000000	          0.00000000	          0.00000000	
          2.25500000	        -39.41451309	        339.83346087	         -3.78394159	         -0.44891910	          0.00000000	         -0.07979673	         -0.00000000	         -0.00000001	         -0.00000000	         -0.00000000	          0.00000000	         -0.00000000	          0.00000000	          0.34967801	          0.00000000	          0.00000000	          0.00000000	          0.00000000	
          2.26000000	        -41.72539058	        362.49154302	         -1.96374427	         -0.44340774	          0.00000000	         -0.07938592	          0.00000000	         -0.00000002	         -0.00000000	         -0.00000000	          0.00000000	         -0.00000000	          0.00000000	          0.32974040	          0.00000000	          0.00000000	          0.00000000	          0.00000000	
          2.26500000	        -43.63569224	        383.98689460	          0.49089800	         -0.43763239	          0.00000000	         -0.07906447	          0.00000000	         -0.00000002	         -0.00000000	         -0.00000000	          0.00000000	         -0.00000000	          0.00000000	          0.27688639	          0.00000000	          0.00000000	          0.00000000	          0.00000000	
          2.27000000	        -45.46640021	        404.28910142	          3.55270358	         -0.43193425	          0.00000000	         -0.07888687	          0.00000000	         -0.00000003	         -0.00000000	         -0.00000000	          0.00000000	         -0.00000000	          0.00000000	          0.19571208	          0.00000000	          0.00000000	          0.00000000	          0.00000000	
          2.27500000	        -47.40127593	        423.52244272	          7.13399213	         -0.42652622	          0.00000000	         -0.07887309	          0.00000000	         -0.00000004	         -0.00000000	         -0.00000000	          0.00000000	         -0.00000000	          0.00000000	          0.09614644	          0.00000000	          0.00000000	          0.00000000	          0.00000000	
          2.28000000	        -49.50233406	        441.87898741	         11.08454380	         -0.42153627	          0.00000000	         -0.07901435	          0.00000000	         -0.00000005	         -0.00000000	         -0.00000000	          0.00000000	         -0.00000000	          0.00000000	         -0.00696662	          0.00000000	          0.00000000	          0.00000000	          0.00000000	
          2.28500000	        -51.75003385	        459.54650671	         15.20521426	         -0.41703125	          0.00000000	         -0.07928223	          0.00000000	         -0.00000005	         -0.00000001	         -0.00000000	          0.00000000	         -0.00000000	          0.00000000	         -0.09669396	          0.00000000	          0.00000000	          0.00000000	          0.00000000	
          2.29000000	        -54.08207763	        476.71405616	         19.28087372	         -0.41303261	          0.00000000	         -0.07963853	          0.00000001	         -0.00000006	         -0.00000001	         -0.00000000	          0.00000000	         -0.00000000	          0.00000000	         -0.15780292	          0.00000000	          0.00000000	          0.00000000	          0.00000000	
          2.29500000	        -56.42816671	        493.59495204	         23.11958080	         -0.40953191	          0.00000000	         -0.08004180	          0.00000001	         -0.00000006	         -0.00000000	         -0.00000000	          0.00000000	         -0.00000000	          0.00000000	         -0.17996121	          0.00000000	          0.00000000	         -0.00000000	          0.00000000	
          2.30000000	        -58.72782105	        510.43003917	         26.58779731	         -0.40649914	          0.00000000	         -0.08045435	          0.00000001	         -0.00000005	         -0.00000000	         -0.00000000	          0.00000000	         -0.00000000	          0.00000000	         -0.15988604	          0.00000000	          0.00000000	         -0.00000000	          0.00000000	
          2.30500000	        -60.92974487	        527.47392177	         29.62923311	         -0.40388984	          0.00000000	         -0.08084766	          0.00000001	         -0.00000003	         -0.00000000	          0.00000000	          0.00000000	          0.00000000	          0.00000000	         -0.10133266	          0.00000000	          0.00000000	         -0.00000000	          0.00000000	
          2.31000000	        -62.99055706	        544.95950748	         32.25506181	         -0.40165235	          0.00000000	         -0.08120385	          0.00000001	         -0.00000000	          0.00000000	          0.00000000	          0.00000000	          0.00000000	          0.00000000	         -0.01260926	          0.00000000	          0.00000000	         -0.00000000	          0.00000000	
